<?xml version="1.0" standalone="no"?><!DOCTYPE svg PUBLIC "-//W3C//DTD SVG 1.1//EN" "http://www.w3.org/Graphics/SVG/1.1/DTD/svg11.dtd"><svg t="1508315440076" class="icon" style="" viewBox="0 0 1024 1024" version="1.1" xmlns="http://www.w3.org/2000/svg" p-id="6289" xmlns:xlink="http://www.w3.org/1999/xlink" width="32" height="32"><defs><style type="text/css"></style></defs><path d="M512 853.333333C323.84 853.333333 170.666667 700.16 170.666667 512 170.666667 323.84 323.84 170.666667 512 170.666667 700.16 170.666667 853.333333 323.84 853.333333 512 853.333333 700.16 700.16 853.333333 512 853.333333M512 85.333333C276.053333 85.333333 85.333333 276.053333 85.333333 512 85.333333 747.946667 276.053333 938.666667 512 938.666667 747.946667 938.666667 938.666667 747.946667 938.666667 512 938.666667 276.053333 747.946667 85.333333 512 85.333333M622.506667 341.333333 512 451.84 401.493333 341.333333 341.333333 401.493333 451.84 512 341.333333 622.506667 401.493333 682.666667 512 572.16 622.506667 682.666667 682.666667 622.506667 572.16 512 682.666667 401.493333 622.506667 341.333333Z" p-id="6290" class="" fill="#ffffff"></path></svg>