<?xml version="1.0" standalone="no"?><!DOCTYPE svg PUBLIC "-//W3C//DTD SVG 1.1//EN" "http://www.w3.org/Graphics/SVG/1.1/DTD/svg11.dtd"><svg t="1508226868123" class="icon" style="" viewBox="0 0 1026 1024" version="1.1" xmlns="http://www.w3.org/2000/svg" p-id="13514" xmlns:xlink="http://www.w3.org/1999/xlink" width="32.0625" height="32"><defs><style type="text/css"></style></defs><path d="M425.89 275.603c0 38.993 27.851 72.414 64.058 80.77v261.805c-36.208 8.355-64.060 41.778-64.058 80.77 0 50.132 36.206 86.34 86.34 86.34 50.132 0 86.34-36.206 86.34-86.34 0-38.993-27.851-72.414-64.058-80.77v-261.805c36.208-8.355 64.060-41.778 64.058-80.77 0-50.132-36.207-86.34-86.34-86.34-47.348 2.786-83.554 38.993-86.34 86.34zM512.231 657.17c22.281 0 41.778 19.496 41.778 41.778s-19.496 41.778-41.778 41.778c-22.281 0-41.778-19.496-41.778-41.778 0-22.281 16.711-38.993 41.778-41.778zM515.014 231.040c22.281 0 41.778 19.496 41.778 41.778s-19.496 41.778-41.778 41.778c-22.281 0-41.778-19.496-41.778-41.778 0-22.281 16.711-38.993 41.778-41.778z" fill="#ffffff" p-id="13515" class="selected"></path><path d="M509.685 610.765c-38.993 0-72.414 27.851-80.77 64.058h-261.805c-8.355-36.208-41.778-64.060-80.77-64.058-50.132 0-86.34 36.207-86.34 86.34 0 50.132 36.206 86.34 86.34 86.34 38.993 0 72.414-27.851 80.77-64.058h261.805c8.355 36.208 41.778 64.060 80.77 64.060 50.132 0 86.34-36.206 86.34-86.34-2.786-47.348-38.993-83.554-86.34-86.34zM128.118 697.105c0 22.281-19.496 41.778-41.778 41.778s-41.778-19.496-41.778-41.778c0-22.281 19.496-41.778 41.778-41.778 22.281 0 38.993 16.711 41.778 41.778zM554.248 699.889c0 22.281-19.496 41.778-41.778 41.778s-41.778-19.496-41.778-41.778c0-22.281 19.496-41.778 41.778-41.778 22.281 0 38.993 16.711 41.778 41.778zM937.664 185.868c-38.993 0-72.414 27.851-80.77 64.058h-261.805c-8.355-36.208-41.778-64.060-80.77-64.058-50.132 0-86.34 36.207-86.34 86.34 0 50.132 36.207 86.34 86.34 86.34 38.993 0 72.414-27.851 80.77-64.058h261.805c8.355 36.208 41.778 64.060 80.77 64.058 50.132 0 86.34-36.207 86.34-86.34-2.786-47.348-38.993-83.554-86.34-86.34zM556.096 272.21c0 22.281-19.496 41.778-41.778 41.778s-41.778-19.496-41.778-41.778c0-22.281 19.496-41.778 41.778-41.778 22.281 0 38.993 16.711 41.778 41.778zM982.226 274.994c0 22.281-19.496 41.778-41.778 41.778s-41.778-19.496-41.778-41.778c0-22.281 19.496-41.778 41.778-41.778 22.281 0 38.993 16.711 41.778 41.778z" fill="#ffffff" p-id="13516" class="selected"></path></svg>