<?xml version="1.0" encoding="utf-8"?>
<!-- Generator: Adobe Illustrator 16.0.0, SVG Export Plug-In . SVG Version: 6.00 Build 0)  -->
<!DOCTYPE svg PUBLIC "-//W3C//DTD SVG 1.1//EN" "http://www.w3.org/Graphics/SVG/1.1/DTD/svg11.dtd">
<svg version="1.1" id="图层_1" xmlns="http://www.w3.org/2000/svg" xmlns:xlink="http://www.w3.org/1999/xlink" x="0px" y="0px"
	 width="32px" height="32px" viewBox="0 0 32 32" enable-background="new 0 0 32 32" xml:space="preserve">
<path fill="#CCCCCC" d="M21.312,16.165c0,3.001-2.379,5.437-5.312,5.437V10.728C18.934,10.728,21.312,13.161,21.312,16.165z"/>
<path fill="#808080" d="M16,21.602c-2.934,0-5.312-2.436-5.312-5.437c0-3.003,2.378-5.437,5.312-5.437v5.437V21.602z"/>
<rect x="22.059" y="15.667" fill="#CCCCCC" width="3.723" height="0.963"/>
<rect x="15.526" y="22.523" fill="#CCCCCC" width="0.949" height="3.668"/>
<rect x="6.219" y="15.667" fill="#CCCCCC" width="3.707" height="0.963"/>
<rect x="15.526" y="6.096" fill="#CCCCCC" width="0.949" height="3.759"/>
<polygon fill="#808080" points="23.432,9.467 20.855,12.164 20.238,11.513 22.812,8.815 "/>
<polygon fill="#808080" points="12.15,21.146 9.518,23.904 8.894,23.248 11.526,20.49 "/>
<polygon fill="#808080" points="20.836,20.178 23.559,23.027 22.928,23.691 20.205,20.842 "/>
<polygon fill="#808080" points="9.402,8.771 11.922,11.411 11.318,12.046 8.798,9.407 "/>
<path fill="none" stroke="#000000" stroke-width="0.3" stroke-miterlimit="10" d="M21.312,16.165c0-3.006-2.379-5.443-5.312-5.443
	l0,0c-2.934,0-5.312,2.437-5.312,5.443l0,0c0,3.005,2.378,5.442,5.312,5.442l0,0C18.934,21.607,21.312,19.17,21.312,16.165
	L21.312,16.165z"/>
<polygon fill="none" stroke="#000000" stroke-width="0.3" stroke-miterlimit="10" points="9.402,8.771 11.922,11.411 11.318,12.046 
	8.798,9.407 "/>
<rect x="15.526" y="6.096" fill="none" stroke="#000000" stroke-width="0.3" stroke-miterlimit="10" width="0.949" height="3.759"/>
<polygon fill="none" stroke="#000000" stroke-width="0.3" stroke-miterlimit="10" points="22.812,8.815 20.238,11.513 
	20.855,12.164 23.432,9.467 "/>
<rect x="22.059" y="15.667" fill="none" stroke="#000000" stroke-width="0.3" stroke-miterlimit="10" width="3.723" height="0.963"/>
<polygon fill="none" stroke="#000000" stroke-width="0.3" stroke-miterlimit="10" points="20.836,20.178 23.559,23.027 
	22.928,23.691 20.205,20.842 "/>
<rect x="15.526" y="22.523" fill="none" stroke="#000000" stroke-width="0.3" stroke-miterlimit="10" width="0.949" height="3.668"/>
<polygon fill="none" stroke="#000000" stroke-width="0.3" stroke-miterlimit="10" points="11.526,20.49 8.894,23.248 9.518,23.904 
	12.15,21.146 "/>
<rect x="6.219" y="15.667" fill="none" stroke="#000000" stroke-width="0.3" stroke-miterlimit="10" width="3.707" height="0.963"/>
</svg>
