<?xml version="1.0" standalone="no"?><!DOCTYPE svg PUBLIC "-//W3C//DTD SVG 1.1//EN" "http://www.w3.org/Graphics/SVG/1.1/DTD/svg11.dtd"><svg t="1508227340882" class="icon" style="" viewBox="0 0 1024 1024" version="1.1" xmlns="http://www.w3.org/2000/svg" p-id="14799" xmlns:xlink="http://www.w3.org/1999/xlink" width="32" height="32"><defs><style type="text/css"></style></defs><path d="M815.317 906.916H208.312c-50.508 0-91.599-41.091-91.599-91.599V208.312c0-50.508 41.091-91.599 91.599-91.599h607.006c50.508 0 91.599 41.091 91.599 91.599v607.006c-0.001 50.507-41.092 91.598-91.6 91.598zM208.312 180.713c-15.218 0-27.599 12.381-27.599 27.599v607.006c0 15.218 12.381 27.599 27.599 27.599h607.006c15.218 0 27.599-12.381 27.599-27.599V208.312c0-15.218-12.381-27.599-27.599-27.599H208.312z" fill="#ffffff" p-id="14800" class="selected"></path><path d="M381.146 310.551c0 17.367-14.079 31.447-31.447 31.447h-62.65c-17.367 0-31.447-14.079-31.447-31.447 0-17.367 14.079-31.447 31.447-31.447h62.65c17.368 0.001 31.447 14.08 31.447 31.447zM381.146 503.298c0 17.367-14.079 31.447-31.447 31.447h-62.65c-17.367 0-31.447-14.079-31.447-31.447 0-17.367 14.079-31.447 31.447-31.447h62.65c17.368 0.001 31.447 14.08 31.447 31.447zM381.146 703.883c0 17.367-14.079 31.446-31.447 31.446h-62.65c-17.367 0-31.447-14.079-31.447-31.446s14.079-31.447 31.447-31.447h62.65c17.368 0.001 31.447 14.08 31.447 31.447zM788.806 309.089c0 17.748-14.388 32.135-32.135 32.135H477.593c-17.748 0-32.135-14.387-32.135-32.135 0-17.748 14.387-32.135 32.135-32.135H756.67c17.748 0 32.136 14.387 32.136 32.135zM788.806 504.484c0 17.748-14.388 32.135-32.135 32.135H477.593c-17.748 0-32.135-14.387-32.135-32.135 0-17.748 14.387-32.135 32.135-32.135H756.67c17.748 0 32.136 14.388 32.136 32.135zM788.806 702.883c0 17.748-14.388 32.135-32.135 32.135H477.593c-17.748 0-32.135-14.387-32.135-32.135 0-17.748 14.387-32.135 32.135-32.135H756.67c17.748 0 32.136 14.387 32.136 32.135z" fill="#ffffff" p-id="14801" class="selected"></path></svg>