<?xml version="1.0" standalone="no"?><!DOCTYPE svg PUBLIC "-//W3C//DTD SVG 1.1//EN" "http://www.w3.org/Graphics/SVG/1.1/DTD/svg11.dtd"><svg t="1508287112544" class="icon" style="" viewBox="0 0 1024 1024" version="1.1" xmlns="http://www.w3.org/2000/svg" p-id="2717" xmlns:xlink="http://www.w3.org/1999/xlink" width="32" height="32"><defs><style type="text/css"></style></defs><path d="M435.024 148.774h-246.274c0 0 0 0 0 0-21.507 0-38.947 17.425-38.97 38.928v246.237c0 21.574 17.516 38.97 38.97 38.97h246.274c0 0 0 0 0 0 21.501 0 38.931-17.429 38.931-38.931 0-0.014 0-0.029 0-0.042v-246.233c-0.022-21.491-17.439-38.908-38.928-38.929zM434.1 550.448h-246.797c-0.012 0-0.027 0-0.039 0-21.522 0-38.97 17.447-38.97 38.97 0 0.014 0 0.029 0 0.042v246.715c0 21.574 17.437 39.171 39.010 39.171h246.797c21.554-0.047 39.010-17.53 39.010-39.090 0-0.029 0-0.057 0-0.085v-246.713c0-0.012 0-0.027 0-0.039 0-21.522-17.447-38.97-38.97-38.97-0.014 0-0.029 0-0.042 0zM836.778 148.774h-246.274c0 0 0 0 0 0-21.507 0-38.947 17.425-38.97 38.928v246.237c0 21.574 17.516 38.97 38.97 38.97h246.274c0 0 0 0 0 0 21.501 0 38.929-17.429 38.929-38.931 0-0.014 0-0.029 0-0.042v-246.233c-0.022-21.491-17.439-38.908-38.928-38.929zM835.854 550.448h-246.797c-0.012 0-0.027 0-0.039 0-21.522 0-38.97 17.447-38.97 38.97 0 0.014 0 0.029 0 0.042v246.715c0 21.574 17.437 39.171 39.010 39.171h246.797c21.599-0.047 39.090-17.566 39.090-39.171 0 0 0 0 0 0v-246.717c-0.022-21.55-17.498-39.010-39.051-39.010-0.014 0-0.029 0-0.042 0z" fill="#ffffff" p-id="2718" class="selected"></path></svg>