<?xml version="1.0" standalone="no"?><!DOCTYPE svg PUBLIC "-//W3C//DTD SVG 1.1//EN" "http://www.w3.org/Graphics/SVG/1.1/DTD/svg11.dtd"><svg t="1508289756535" class="icon" style="" viewBox="0 0 1024 1024" version="1.1" xmlns="http://www.w3.org/2000/svg" p-id="4591" xmlns:xlink="http://www.w3.org/1999/xlink" width="32" height="32"><defs><style type="text/css"></style></defs><path d="M80.278371 46.511313l256.31876 0 0 259.391748-256.31876 0 0-259.391748Z" p-id="4592" class="selected" fill="#ffffff"></path><path d="M399.360594 46.511313 655.679353 46.511313 655.679353 305.904085 399.360594 305.904085Z" p-id="4593" class="selected" fill="#ffffff"></path><path d="M719.139687 46.511313 975.458447 46.511313 975.458447 305.904085 719.139687 305.904085Z" p-id="4594" class="selected" fill="#ffffff"></path><path d="M79.930447 365.590466l256.31876 0 0 257.345136-256.31876 0 0-257.345136Z" p-id="4595" class="selected" fill="#ffffff"></path><path d="M399.012669 365.590466 655.331429 365.590466 655.331429 622.935602 399.012669 622.935602Z" p-id="4596" class="selected" fill="#ffffff"></path><path d="M718.79074 365.590466 975.110523 365.590466 975.110523 622.935602 718.79074 622.935602Z" p-id="4597" class="selected" fill="#ffffff"></path><path d="M79.582523 686.885076l256.31876 0 0 255.298524-256.31876 0 0-255.298524Z" p-id="4598" class="selected" fill="#ffffff"></path><path d="M398.664745 686.885076 654.983505 686.885076 654.983505 942.1836 398.664745 942.1836Z" p-id="4599" class="selected" fill="#ffffff"></path><path d="M718.442816 686.885076 974.761576 686.885076 974.761576 942.1836 718.442816 942.1836Z" p-id="4600" class="selected" fill="#ffffff"></path></svg>