<?xml version="1.0" standalone="no"?><!DOCTYPE svg PUBLIC "-//W3C//DTD SVG 1.1//EN" "http://www.w3.org/Graphics/SVG/1.1/DTD/svg11.dtd"><svg t="1508227548260" class="icon" style="" viewBox="0 0 1024 1024" version="1.1" xmlns="http://www.w3.org/2000/svg" p-id="20594" xmlns:xlink="http://www.w3.org/1999/xlink" width="32" height="32"><defs><style type="text/css"></style></defs><path d="M772.266667 584.533333c-4.266667 12.8-12.8 29.866667-21.333334 46.933334-64 140.8-226.133333 200.533333-366.933333 136.533333s-200.533333-226.133333-136.533333-366.933333 226.133333-200.533333 366.933333-136.533334c59.733333 25.6 102.4 72.533333 132.266667 128l38.4-17.066666c-29.866667-64-81.066667-115.2-153.6-149.333334C469.333333 153.6 281.6 226.133333 209.066667 384s-4.266667 349.866667 157.866666 426.666667 349.866667 4.266667 422.4-157.866667c8.533333-21.333333 17.066667-34.133333 21.333334-46.933333l-38.4-21.333334z" fill="#FFFFFF" p-id="20595"></path><path d="M814.933333 281.6l-42.666666-8.533333-21.333334 85.333333-81.066666-21.333333-8.533334 42.666666 123.733334 29.866667 8.533333-42.666667zM320 622.933333c12.8 8.533333 29.866667 12.8 46.933333 12.8 25.6 0 42.666667-8.533333 55.466667-29.866666s21.333333-46.933333 21.333333-81.066667c-12.8 21.333333-29.866667 34.133333-59.733333 34.133333-21.333333 0-38.4-8.533333-55.466667-21.333333-12.8-17.066667-21.333333-34.133333-21.333333-59.733333 0-25.6 8.533333-46.933333 25.6-64 17.066667-17.066667 38.4-25.6 59.733333-25.6 25.6 0 46.933333 8.533333 59.733334 29.866666s21.333333 51.2 21.333333 89.6c0 46.933333-8.533333 85.333333-29.866667 110.933334s-46.933333 38.4-76.8 38.4c-17.066667 0-34.133333-4.266667-46.933333-8.533334v-25.6z m21.333333-149.333333c0 17.066667 4.266667 29.866667 12.8 42.666667 8.533333 8.533333 21.333333 17.066667 38.4 17.066666 12.8 0 25.6-4.266667 34.133334-12.8s12.8-21.333333 12.8-34.133333c0-17.066667-4.266667-34.133333-12.8-46.933333-8.533333-12.8-21.333333-21.333333-38.4-21.333334-12.8 0-25.6 4.266667-34.133334 17.066667-8.533333 12.8-12.8 25.6-12.8 38.4zM507.733333 533.333333c0-46.933333 8.533333-81.066667 21.333334-106.666666 17.066667-25.6 38.4-34.133333 68.266666-34.133334 55.466667 0 85.333333 46.933333 85.333334 136.533334 0 42.666667-8.533333 76.8-25.6 102.4-17.066667 21.333333-38.4 34.133333-64 34.133333s-46.933333-12.8-64-34.133333-21.333333-55.466667-21.333334-98.133334z m34.133334-4.266666c0 68.266667 17.066667 106.666667 51.2 106.666666 34.133333 0 51.2-34.133333 51.2-106.666666s-17.066667-110.933333-51.2-110.933334c-34.133333 0-51.2 38.4-51.2 110.933334z" fill="#FFFFFF" p-id="20596"></path></svg>