<?xml version="1.0" standalone="no"?><!DOCTYPE svg PUBLIC "-//W3C//DTD SVG 1.1//EN" "http://www.w3.org/Graphics/SVG/1.1/DTD/svg11.dtd"><svg t="1508226745673" class="icon" style="" viewBox="0 0 1024 1024" version="1.1" xmlns="http://www.w3.org/2000/svg" p-id="12778" xmlns:xlink="http://www.w3.org/1999/xlink" width="32" height="32"><defs><style type="text/css"></style></defs><path d="M812.125 321.33L700.276 183.91c-2.771-3.406-6.535-5.322-10.452-5.322H266.895c-21.386 0-38.788 21.38-38.788 47.667v627.539c0 26.287 17.402 47.667 38.788 47.667H777.668c21.387 0 38.788-21.38 38.788-47.667V334.172c0-4.813-1.56-9.436-4.33-12.842zM631.546 214.916v160.987c0 0.626-0.423 1.147-0.924 1.147h-41.174V214.916z m-71.665 0V377.05H413.21c-0.501 0-0.925-0.52-0.925-1.147V214.916zM365.096 865.134V640.101c0-42.299 28.018-76.721 62.445-76.721h200.386c34.437 0 62.455 34.423 62.455 76.72v225.034z m421.793-11.34c0 6.255-4.138 11.34-9.22 11.34h-57.72V640.101c0-62.33-41.28-113.048-92.021-113.048H427.54c-50.732 0-92.012 50.718-92.012 113.048v225.033h-68.634c-5.082 0-9.22-5.085-9.22-11.34V226.255c0-6.255 4.138-11.34 9.22-11.34h115.824v160.988c0 20.658 13.676 37.474 30.491 37.474h217.412c16.815 0 30.492-16.816 30.492-37.474V214.916h22.589l103.186 126.777z" p-id="12779" class="selected" fill="#ffffff"></path><path d="M620.507 740.426h-182.63c-8.16 0-14.783 8.135-14.783 18.163s6.622 18.163 14.784 18.163h182.629c8.162 0 14.783-8.135 14.783-18.163s-6.621-18.163-14.783-18.163z" p-id="12780" class="selected" fill="#ffffff"></path><path d="M620.507 645.221h-182.63c-8.16 0-14.783 8.136-14.783 18.163 0 10.028 6.622 18.163 14.784 18.163h182.629c8.162 0 14.783-8.135 14.783-18.163 0-10.027-6.621-18.163-14.783-18.163z" p-id="12781" class="selected" fill="#ffffff"></path></svg>