<?xml version="1.0" standalone="no"?><!DOCTYPE svg PUBLIC "-//W3C//DTD SVG 1.1//EN" "http://www.w3.org/Graphics/SVG/1.1/DTD/svg11.dtd"><svg t="1508240139002" class="icon" style="" viewBox="0 0 1024 1024" version="1.1" xmlns="http://www.w3.org/2000/svg" p-id="8249" xmlns:xlink="http://www.w3.org/1999/xlink" width="32" height="32"><defs><style type="text/css"></style></defs><path d="M718.1 367.9L600 250.7l-353.7 352 118 117.6 353.8-352.4z m118-117.2c16.4-16 16.4-42.4 0-58.8l-59.2-58.4c-16.4-16-42.8-16-58.8 0l-88.6 88.2 118 117.2 88.6-88.2zM216.9 632.1l-39.4 156.5L335 749.7 216.9 632.1z m700.5 242.5H108c-22.9 0-41.9 18.6-41.9 41.9 0 22.9 18.6 41.9 41.9 41.9h809.9c22.9 0 41.9-18.6 41.9-41.9-0.5-23.3-19-41.9-42.4-41.9z m0 0" p-id="8250" class="selected" fill="#ffffff"></path></svg>