<?xml version="1.0" standalone="no"?><!DOCTYPE svg PUBLIC "-//W3C//DTD SVG 1.1//EN" "http://www.w3.org/Graphics/SVG/1.1/DTD/svg11.dtd"><svg t="1508225796204" class="icon" style="" viewBox="0 0 1024 1024" version="1.1" xmlns="http://www.w3.org/2000/svg" p-id="4164" xmlns:xlink="http://www.w3.org/1999/xlink" width="32" height="32"><defs><style type="text/css"></style></defs><path d="M894.512762 894.634667a25.6 25.6 0 0 1-35.718095 0l-202.166857-198.972953a329.874286 329.874286 0 0 1-206.555429 72.118857C268.824381 767.780571 121.904762 623.201524 121.904762 444.854857 121.904762 266.48381 268.824381 121.904762 450.072381 121.904762c181.248 0 328.167619 144.579048 328.167619 322.950095 0 83.382857-32.402286 159.158857-85.138286 216.454095l201.411048 198.168381a24.624762 24.624762 0 0 1 0 35.157334zM450.072381 171.593143c-153.35619 0-277.674667 122.343619-277.674667 273.261714S296.71619 718.116571 450.072381 718.116571c153.35619 0 277.674667-122.343619 277.674667-273.261714S603.428571 171.593143 450.072381 171.593143z" fill="#ffffff" p-id="4165"></path></svg>